<svg xmlns="http://www.w3.org/2000/svg" width="975" height="225" fill="none"><g clip-path="url(#a)"><path fill="#7A53DD" d="M258.127 116.989v58.183a21.287 21.287 0 0 1-2.841 10.341 21.013 21.013 0 0 1-7.529 7.613l-50.398 29.035a20.2 20.2 0 0 1-20.653 0l-50.398-29.035a21.02 21.02 0 0 1-7.529-7.613 21.287 21.287 0 0 1-2.841-10.341v-16.307l25.796-15v28.409l45.171 26.222 45.142-26.222v-52.302l-45.142-26.221L81.109 155.03a20.91 20.91 0 0 1-20.654 0l-50.398-29.148A20.884 20.884 0 0 1 0 107.984V49.802a20.966 20.966 0 0 1 10.313-17.955L60.71 2.812a20.313 20.313 0 0 1 20.625 0l50.398 29.035A21.048 21.048 0 0 1 142.075 49.8v16.307l-25.966 14.887v-28.21l-45.17-26.222-45.143 26.221v52.217l45.142 26.222 105.881-61.28a20.913 20.913 0 0 1 20.654 0l50.37 29.149a20.961 20.961 0 0 1 10.227 17.897h.057Z"/><path fill="#fff" d="M347.943 196.337v-45.455c4.915 6.193 13.863 9.659 24.204 9.659 26.393 0 44.234-18.75 44.234-47.33s-16.392-47.33-42.046-47.33c-11.847 0-20.938 4.347-26.421 11.364V67.16h-25.256v128.893l25.285.284zm21.079-57.557c-13.693 0-22.585-10.199-22.585-25.569s8.892-25.568 22.585-25.568c13.694 0 22.387 10.085 22.387 25.568s-9.063 25.569-22.387 25.569zm104.839 21.876c28.21 0 48.296-20.057 48.296-47.33s-20.171-47.33-48.296-47.33-48.296 19.886-48.296 47.33c0 27.443 20.057 47.33 48.296 47.33zm0-21.876c-13.665 0-22.955-10.369-22.955-25.568 0-15.199 9.318-25.568 22.955-25.568 13.636 0 22.926 10.37 22.926 25.568 0 15.199-9.261 25.568-22.926 25.568zm89.024 20.426V27.558h-25.256v131.648h25.256zm76.041-91.763-19.12 59.148-19.29-59.148H574.55l33.296 90.91-13.409 37.983h24.204l13.012-37.472 33.324-91.392-26.051-.029zm97.117 9.093c-5.113-6.364-14.204-10.54-25.312-10.54-26.762 0-42.955 18.722-42.955 47.33 0 28.608 16.136 47.33 43.324 47.33 10.739 0 20.398-4.035 25.114-10.768v12.103c0 8.523-5.682 14.574-13.267 14.574h-42.245v19.886h46.25c20.739 0 34.575-12.557 34.575-31.676v-97.33h-25.569l.085 9.09zm-20.937 62.244c-13.466 0-22.387-10.056-22.387-25.568 0-15.511 8.921-25.568 22.387-25.568 13.466 0 22.557 10.085 22.557 25.568s-8.892 25.568-22.557 25.568zm110.233 21.876c28.21 0 48.296-20.057 48.296-47.33s-20.171-47.33-48.296-47.33-48.296 19.886-48.296 47.33c0 27.443 20.057 47.33 48.296 47.33zm0-21.876c-13.665 0-22.955-10.369-22.955-25.568 0-15.199 9.29-25.568 22.955-25.568s22.926 10.37 22.926 25.568c0 15.199-9.29 25.568-22.926 25.568zm87.724 20.427v-50.256c0-11.847 7.841-20.398 18.949-20.398 10.54 0 17.642 8.068 17.642 19.119v51.535h25.569v-57.188c0-21.108-13.466-36.023-34.262-36.023-12.557 0-22.727 5.256-27.841 14.205V67.558h-25.568l-.001 91.762 25.512-.113z"/></g><defs><clipPath id="a"><path fill="#fff" d="M0 0h975v225H0z"/></clipPath></defs></svg>